<svg xmlns="http://www.w3.org/2000/svg" xmlns:xlink="http://www.w3.org/1999/xlink" version="1.1" id="Layer_1" x="0px" y="0px" width="100px" height="100px" viewBox="0 0 100 100" enable-background="new 0 0 100 100" xml:space="preserve">
<path fill="#ffffff" d="M89.653,17.956H10.606c-4.082,0-7.402,3.321-7.402,7.402v49.875c0,4.082,3.32,7.402,7.402,7.402h79.047  c4.082,0,7.402-3.32,7.402-7.402V25.358C97.055,21.277,93.735,17.956,89.653,17.956z M93.543,25.358V40.69  c-8.176,0-42.222,0.002-42.551,0.008c-0.245,0.004-0.38-0.075-0.494-0.293c-0.768-1.479-1.323-3.033-1.665-4.662  c-0.115-0.55-0.336-0.854-0.89-0.846c-0.797,0.011-1.618,0.061-2.388,0.256c-2.314,0.583-4.331,1.792-6.231,3.195  c-0.909,0.672-1.758,1.426-2.641,2.134c-0.131,0.104-0.291,0.171-0.505,0.295c0-3.37,0-6.698,0-10.023c0-0.58,0-6.299,0-9.287  h53.475C91.798,21.468,93.543,23.213,93.543,25.358z M10.606,21.468H29.55c0,2.796,0,7.954,0,8.262c0,3.654,0,6.735,0,10.454  c-0.3-0.103-0.575-0.15-0.799-0.282c-0.451-0.268-0.876-0.577-1.303-0.88c-2.496-1.772-5.463-2.501-8.391-3.208  c-0.22-0.052-0.449-0.075-0.674-0.086c-1.231-0.067-1.633,0.152-2.053,1.3c-0.348,0.955-0.477,2.376-0.783,3.346  c-0.04,0.125-0.191,0.305-0.293,0.305c-0.605,0.008-5.826,0.011-8.539,0.013V25.358C6.716,23.213,8.461,21.468,10.606,21.468z   M6.716,75.233V47.285c3.944,0,11.359,0,13.513,0c-0.292,0.314-0.52,0.576-0.766,0.82c-0.893,0.889-1.33,1.314-2.235,2.19  c-0.314,0.305-0.333,0.656-0.277,1.054c0.403,2.776,0.27,6.021,0.243,8.834c-0.006,0.507-0.043,1.014-0.07,1.614  c0.144-0.082,0.257-0.112,0.319-0.188c0.528-0.641,0.992-1.344,1.578-1.926c2.005-1.998,4.078-3.933,6.077-5.937  c1.439-1.443,2.804-2.961,4.201-4.446c0.066-0.07,0.133-0.141,0.252-0.268c0,4.514,0,24.093,0,30.09H10.606  C8.461,79.124,6.716,77.378,6.716,75.233z M89.653,79.124H36.18c0-7.48,0-25.827,0-31.163c1.387,1.615,2.697,3.216,4.09,4.742  c1.307,1.432,2.738,2.752,4.054,4.177c1.333,1.446,3.396,3.843,4.688,5.327c0.073,0.084,0.145,0.166,0.273,0.313  c0.033-0.184,0.065-0.296,0.073-0.411c0.254-3.29,0.501-6.58,0.766-9.868c0.027-0.341-0.037-0.621-0.273-0.85  c-0.995-0.965-2.796-2.809-3.796-3.77c-0.101-0.096-0.21-0.183-0.378-0.327c2.393,0,39.093,0,47.867,0v27.938  C93.543,77.378,91.798,79.124,89.653,79.124z"/>
</svg>